<svg width="24" height="24" viewBox="0 0 24 24" fill="none" xmlns="http://www.w3.org/2000/svg">
<g id="Category">
<path id="Category_2" fill-rule="evenodd" clip-rule="evenodd" d="M4.35832 0.919922C2.45414 0.919922 0.919922 2.47956 0.919922 4.37848V7.65112C0.919922 9.56149 2.45693 11.1087 4.35832 11.1087H7.60312C9.51667 11.1087 11.0415 9.55892 11.0415 7.65112V4.37848C11.0415 2.48214 9.51945 0.919922 7.60312 0.919922H4.35832ZM2.91992 4.37848C2.91992 3.56828 3.5745 2.91992 4.35832 2.91992H7.60312C8.39399 2.91992 9.04152 3.5657 9.04152 4.37848V7.65112C9.04152 8.46973 8.39678 9.10872 7.60312 9.10872H4.35832C3.57171 9.10872 2.91992 8.46715 2.91992 7.65112V4.37848ZM4.35832 12.8908C2.45643 12.8908 0.919922 14.4395 0.919922 16.3494V19.622C0.919922 21.5202 2.4544 23.0796 4.35832 23.0796H7.60312C9.5192 23.0796 11.0415 21.5177 11.0415 19.622V16.3494C11.0415 14.4421 9.51717 12.8908 7.60312 12.8908H4.35832ZM2.91992 16.3494C2.91992 15.5328 3.57222 14.8908 4.35832 14.8908H7.60312C8.39627 14.8908 9.04152 15.5303 9.04152 16.3494V19.622C9.04152 20.4336 8.39425 21.0796 7.60312 21.0796H4.35832C3.57425 21.0796 2.91992 20.431 2.91992 19.622V16.3494ZM12.9584 4.37848C12.9584 2.48214 14.4804 0.919922 16.3968 0.919922H19.6416C21.5457 0.919922 23.08 2.47956 23.08 4.37848V7.65112C23.08 9.56149 21.5429 11.1087 19.6416 11.1087H16.3968C14.4832 11.1087 12.9584 9.55892 12.9584 7.65112V4.37848ZM16.3968 2.91992C15.6059 2.91992 14.9584 3.5657 14.9584 4.37848V7.65112C14.9584 8.46973 15.6031 9.10872 16.3968 9.10872H19.6416C20.4282 9.10872 21.08 8.46715 21.08 7.65112V4.37848C21.08 3.56828 20.4254 2.91992 19.6416 2.91992H16.3968ZM16.3968 12.8908C14.4827 12.8908 12.9584 14.4421 12.9584 16.3494V19.622C12.9584 21.5177 14.4807 23.0796 16.3968 23.0796H19.6416C21.5455 23.0796 23.08 21.5202 23.08 19.622V16.3494C23.08 14.4395 21.5435 12.8908 19.6416 12.8908H16.3968ZM14.9584 16.3494C14.9584 15.5303 15.6036 14.8908 16.3968 14.8908H19.6416C20.4277 14.8908 21.08 15.5328 21.08 16.3494V19.622C21.08 20.431 20.4256 21.0796 19.6416 21.0796H16.3968C15.6056 21.0796 14.9584 20.4336 14.9584 19.622V16.3494Z" fill="white"/>
</g>
</svg>
