<svg width="20" height="20" viewBox="0 0 20 20" fill="none" xmlns="http://www.w3.org/2000/svg">
<g id="Icon">
<g id="Group 36188">
<path id="Vector" d="M12.421 4.3233C13.0409 3.58234 13.3465 2.62909 13.2729 1.6665C12.3368 1.76179 11.4731 2.21237 10.8603 2.92517C10.5527 3.27677 10.3175 3.68552 10.1684 4.128C10.0193 4.57048 9.95914 5.03799 9.99135 5.50373C10.4604 5.50889 10.9241 5.4049 11.3458 5.2C11.7676 4.9951 12.1357 4.69494 12.421 4.3233Z" fill="#19253D"/>
<path id="Vector_2" d="M14.4859 10.5218C14.477 9.94023 14.6116 9.36543 14.8778 8.84808C15.1957 8.24047 15.6652 7.72495 16.2409 7.35129C15.9047 6.86202 15.4583 6.45822 14.9375 6.17229C14.4168 5.88636 13.8361 5.72625 13.2422 5.70483C11.9677 5.57216 10.7546 6.46683 10.1105 6.46683C9.46651 6.46683 8.46466 5.72184 7.40489 5.74225C6.70671 5.76458 6.02657 5.96917 5.43227 6.33565C4.83796 6.70213 4.35024 7.21768 4.01771 7.83095C3.79696 8.22396 3.63074 8.6451 3.5236 9.0828C2.91364 11.4981 3.86436 14.4678 5.05703 16.2266C5.73856 17.2471 6.56321 18.3731 7.64002 18.3323C8.71683 18.2915 9.07122 17.6519 10.3252 17.6519C11.5792 17.6519 11.9302 18.3323 13.0275 18.3119C14.1247 18.2915 14.8506 17.2913 15.5321 16.2708C16.0224 15.5414 16.4046 14.7451 16.6668 13.9066C16.0126 13.6157 15.4577 13.1404 15.0703 12.5391C14.6828 11.9378 14.4798 11.2367 14.4859 10.5218Z" fill="#19253D"/>
</g>
</g>
</svg>
