<svg width="20" height="20" viewBox="0 0 20 20" fill="none" xmlns="http://www.w3.org/2000/svg">
<g id="Icon">
<g id="Icon_2" opacity="0.7">
<g id="Group 202">
<path id="Vector" d="M5.36002 11.7392L4.7799 13.9054L2.65959 13.9503C2.02593 12.7747 1.6665 11.4296 1.6665 10.0003C1.6665 8.61808 2.00256 7.31467 2.59823 6.16699H2.59869L4.48636 6.51316L5.31328 8.39001C5.14021 8.89471 5.04587 9.43649 5.04587 10.0003C5.04594 10.6121 5.15674 11.1983 5.36002 11.7392Z" fill="#FBBB00"/>
<path id="Vector_2" d="M18.1873 8.44678C18.283 8.95099 18.3329 9.47171 18.3329 10.0039C18.3329 10.6006 18.2701 11.1827 18.1506 11.7442C17.745 13.6549 16.6851 15.3233 15.2167 16.504L15.2163 16.5035L12.8386 16.3821L12.5021 14.2809C13.4764 13.7094 14.2379 12.815 14.639 11.7442H10.1831V8.44678H14.704H18.1873Z" fill="#518EF8"/>
<path id="Vector_3" d="M15.2144 16.4975L15.2149 16.4979C13.7868 17.6461 11.9728 18.333 9.99807 18.333C6.82468 18.333 4.06566 16.5588 2.6582 13.9479L5.35863 11.7368C6.06234 13.6154 7.87408 14.9527 9.99807 14.9527C10.911 14.9527 11.7663 14.7059 12.5002 14.2749L15.2144 16.4975Z" fill="#28B446"/>
<path id="Vector_4" d="M15.3173 3.58542L12.6178 5.79606C11.8582 5.32115 10.9603 5.0468 9.99839 5.0468C7.82632 5.0468 5.9807 6.44545 5.31225 8.39142L2.59762 6.1684H2.59717C3.98402 3.49383 6.77784 1.6665 9.99839 1.6665C12.0203 1.6665 13.8741 2.38691 15.3173 3.58542Z" fill="#F14336"/>
</g>
</g>
</g>
</svg>
